<svg xmlns="http://www.w3.org/2000/svg" xmlns:xlink="http://www.w3.org/1999/xlink" id="body_1" preserveAspectRatio="xMinYMin meet" viewBox="0 0 793 1121"><defs><clipPath id="1"><path d="M0 841L0 -0.9000244L0 -0.9000244L595.3 -0.9000244L595.3 -0.9000244L595.3 841L595.3 841L0 841z" /></clipPath><clipPath id="2"><path d="M0 -0.9000244L595.3 -0.9000244L595.3 -0.9000244L595.3 841L595.3 841L0 841z" /></clipPath><clipPath id="3"><path d="M0 -0.9000244L595.3 -0.9000244L595.3 -0.9000244L595.3 841L595.3 841L0 841z" /></clipPath><clipPath id="4"><path d="M-1638.4 111.1L2143.65 111.1L2143.65 111.1L2143.65 127.1L2143.65 127.1L-1638.4 127.1z" /></clipPath><clipPath id="5"><path d="M0 -0.9000244L595.3 -0.9000244L595.3 -0.9000244L595.3 841L595.3 841L0 841z" /></clipPath><clipPath id="6"><path d="M0 -0.9000244L595.3 -0.9000244L595.3 -0.9000244L595.3 841L595.3 841L0 841z" /></clipPath><clipPath id="7"><path d="M-1638.4 173.9L2143.65 173.9L2143.65 173.9L2143.65 185.9L2143.65 185.9L-1638.4 185.9z" /></clipPath><clipPath id="8"><path d="M0 -0.9000244L595.3 -0.9000244L595.3 -0.9000244L595.3 841L595.3 841L0 841z" /></clipPath></defs><g transform="matrix(1.333333 0 0 1.333333 0 0)"><g><g clip-path="url(#1)"><g clip-path="url(#2)"><path transform="matrix(1 0 0 -1 0 841)" d="M85.7 71.90002L505.3 71.90002L505.3 71.90002L505.3 71.42004L505.3 71.42004L85.7 71.42004z" stroke="none" fill="#D9D9D9" fill-rule="evenodd" /></g><g clip-path="url(#3)"><g clip-path="url(#4)"><g transform="matrix(0.7497307 0 0 0.675 86.76 118.5)"><g transform="matrix(1 0 0 1 0 0)"><image x="0" y="0" xlink:href="img_01.png" width="557" height="8" /></g></g></g></g><g clip-path="url(#5)"><path transform="matrix(1 0 0 -1 0 841)" d="M120.6 669.1L218.4 669.1" stroke="#0000FF" stroke-width="0.6" fill="none" /></g><g clip-path="url(#6)"><g clip-path="url(#7)"><g transform="matrix(0.7497307 0 0 0.675 85.68 178.14)"><g transform="matrix(1 0 0 1 0 0)"><image x="0" y="0" xlink:href="img_01.png" width="557" height="8" /></g></g></g></g><g clip-path="url(#8)"></g></g></g></g></svg>